<?xml version="1.0" encoding="UTF-8" standalone="no"?><!DOCTYPE svg PUBLIC "-//W3C//DTD SVG 1.1//EN" "http://www.w3.org/Graphics/SVG/1.1/DTD/svg11.dtd"><svg width="100%" height="100%" viewBox="0 0 138 277" version="1.1" xmlns="http://www.w3.org/2000/svg" xmlns:xlink="http://www.w3.org/1999/xlink" xml:space="preserve" xmlns:serif="http://www.serif.com/" style="fill-rule:evenodd;clip-rule:evenodd;stroke-linejoin:round;stroke-miterlimit:2;"><path d="M132.221,50.991c-0,0 -0,0 -0,0.001c-0,0.203 -0.456,202.863 -0.456,202.863c-1.111,5.388 -4.886,6.11 -10.431,6.11l-23.796,10.462c-4.049,1.366 -56.769,-51.832 -56.769,-57.281l-28.332,-190.434c0,-5.449 30.754,-15.662 36.097,-15.877l78.895,29.714c5.314,2.198 4.792,8.992 4.792,14.441Z" style="fill:#d2d2d2;"/><path d="M132.235,52.023c0,0 -0,0 -0,0.001c-0.001,0.255 -0.47,203.626 -0.47,203.626c-1.111,4.806 -4.886,5.45 -10.431,5.45l-23.796,9.331c-4.049,1.218 -0.277,-221.999 -0.277,-221.999c8.937,4.183 32.745,-10.014 32.745,-10.014c2.324,2.859 2.229,8.746 2.229,13.606Z" style="fill:#a6a6a6;"/><path d="M101.587,61.841c-0,0 -0,0 -0,0c-0,0.204 -0.14,203.999 -0.14,203.999c-0.265,3.189 -2.635,6.741 -8.18,6.741l-72.591,-31.021c-5.468,-4.011 -9.748,-7.378 -9.748,-12.923l-1.859,-196.931c0,-5.545 2.09,-13.834 13.021,-12.216l73.809,27.846c5.314,2.237 5.688,8.96 5.688,14.505Z" style="fill:#b0b0b0;"/><path d="M62.493,53.467c6.673,-2.24 14.79,3.982 18.115,13.886c3.324,9.903 0.606,19.763 -6.067,22.003c-6.673,2.24 -14.79,-3.982 -18.115,-13.886c-3.325,-9.903 -0.606,-19.763 6.067,-22.003Z" style="fill:#94ccce;"/><path d="M64.667,59.943c4.265,-1.432 9.453,2.544 11.578,8.874c2.124,6.33 0.387,12.632 -3.878,14.063c-4.265,1.432 -9.453,-2.545 -11.578,-8.874c-2.125,-6.33 -0.387,-12.632 3.878,-14.063Z"/></svg>