<?xml version="1.0" encoding="UTF-8" standalone="no"?><!DOCTYPE svg PUBLIC "-//W3C//DTD SVG 1.1//EN" "http://www.w3.org/Graphics/SVG/1.1/DTD/svg11.dtd"><svg width="100%" height="100%" viewBox="0 0 216 366" version="1.1" xmlns="http://www.w3.org/2000/svg" xmlns:xlink="http://www.w3.org/1999/xlink" xml:space="preserve" xmlns:serif="http://www.serif.com/" style="fill-rule:evenodd;clip-rule:evenodd;stroke-linejoin:round;stroke-miterlimit:2;"><g id="Artboard1"><rect x="0" y="0" width="215.502" height="365.897" style="fill:none;"/><path id="box" d="M207.13,53.173l-0,274.545c-0,-0 -27.935,20.495 -39.868,29.249c-3.271,2.4 -7.587,2.833 -11.269,1.131c-22.945,-10.603 -105.686,-48.842 -135.68,-62.703c-6.695,-3.094 -11.02,-9.756 -11.121,-17.131c-0.62,-44.918 -2.785,-201.871 -3.33,-241.392c-0.028,-2.083 0.957,-4.05 2.643,-5.274c1.686,-1.224 3.861,-1.552 5.833,-0.88c30.562,10.422 132.675,45.242 143.577,48.959c0.602,0.205 1.262,0.146 1.818,-0.163c6.522,-3.624 47.397,-26.341 47.397,-26.341Z" style="fill:#b0b0b0;fill-rule:nonzero;"/><path id="top" d="M207.13,53.924l-46.27,27.366l-148.654,-50.914c-0,-0 41.18,-19.144 48.882,-22.725c0.793,-0.368 1.695,-0.424 2.527,-0.155c14.364,4.647 143.515,46.428 143.515,46.428Z" style="fill:#d2d2d2;fill-rule:nonzero;"/><path d="M161.614,77.117c0.179,-0 0.323,0.144 0.323,0.322c0,10.265 0,262.082 0,280.343c0,0.577 -0.467,1.044 -1.044,1.044c-0.023,-0 -0.046,-0 -0.068,-0c-0.576,-0 -1.042,-0.466 -1.042,-1.042c-0,-18.235 -0,-269.89 -0,-280.333c-0,-0.185 0.15,-0.334 0.334,-0.334c0.409,-0 1.094,-0 1.497,-0Z" style="fill:#d2d2d2;"/><path d="M98.453,159.516c-4.344,1.55 -12.801,2.181 -20.142,-0.55c-10.168,-3.784 -18.157,-10.579 -17.915,-14.519c0.464,-1.433 4.134,0.703 5.698,2.511c7.24,8.372 21.107,12.426 32.79,8.421c2.179,-0.748 2.22,3.192 -0.431,4.137Z" style="fill:#726d6d;fill-rule:nonzero;"/><path d="M93.359,149.947c-8.151,-3.041 -16.002,-5.902 -23.716,-9.096c-8.704,-3.604 -12.507,-10.973 -10.802,-20.203c0.677,-3.668 5.006,-6.561 8.568,-5.358c11.027,3.726 22.036,7.515 32.931,11.603c1.502,0.563 3.046,2.844 3.299,4.522c0.514,3.418 0.172,6.966 0.162,10.46c-0.022,6.993 -3.111,9.472 -10.442,8.072m-21.97,-14.998c5.516,2.03 11.007,4.133 16.555,6.072c7.742,2.705 8.951,1.754 8.83,-6.687c-0.009,-0.644 -0.168,-1.285 -0.255,-1.904c-8.41,-3.074 -16.645,-6.206 -24.985,-9.031c-1.697,-0.575 -5.162,-0.534 -5.434,0.159c-0.798,2.026 -1.067,4.798 -0.268,6.758c0.755,1.852 3.127,3.044 5.557,4.633Z" style="fill:#726d6d;fill-rule:nonzero;"/><path d="M103.922,123.938l-13.077,-4.587c-0,-0 -4.742,-2.181 -3.388,-6.866l16.465,5.943l-0,5.51Z" style="fill:#726d6d;fill-rule:nonzero;"/></g></svg>