<?xml version="1.0" encoding="UTF-8" standalone="no"?><!DOCTYPE svg PUBLIC "-//W3C//DTD SVG 1.1//EN" "http://www.w3.org/Graphics/SVG/1.1/DTD/svg11.dtd"><svg width="100%" height="100%" viewBox="0 0 154 285" version="1.1" xmlns="http://www.w3.org/2000/svg" xmlns:xlink="http://www.w3.org/1999/xlink" xml:space="preserve" xmlns:serif="http://www.serif.com/" style="fill-rule:evenodd;clip-rule:evenodd;stroke-linejoin:round;stroke-miterlimit:2;"><rect id="Artboard1" x="0" y="0" width="153.496" height="284.44" style="fill:none;"/><path d="M107.53,273.238c-0.199,-4.081 0.494,-8.224 0.496,-12.336c0.039,-63.47 0.047,-126.94 0.019,-190.411c-0.001,-3.154 -1.875,-9.713 -1.861,-13.48c5.496,-2.227 30.306,-12.199 31.812,-8.605c0.235,-0.064 -1.54,135.311 -1.395,173.276c0.006,1.489 1.731,2.971 2.654,4.456c-0.234,10.748 0.01,21.535 -0.889,32.227c-0.501,5.966 -3.91,6.86 -10.08,7.204c-4.374,0.245 -8.649,2.722 -12.911,4.352c-2.426,0.929 -5.111,2.191 -7.845,3.317Z" style="fill:#474747;fill-rule:nonzero;"/><path d="M139.255,226.69c-0.968,-1.022 -2.648,-3.519 -2.654,-5.008c-0.145,-37.965 -0.192,-75.931 -0.062,-113.896c0.048,-13.97 0.803,-27.938 0.797,-41.907c-0.003,-5.268 -1.675,-16.961 -1.675,-16.961c0,0 -24.306,8.275 -29.805,10.077c-1.708,-7.527 -4.965,-10.08 -12.174,-12.655c-20.649,-7.377 -41.034,-15.494 -61.506,-23.363c-1.512,-0.582 -12.121,-1.306 -13.76,-2.364c7.587,-3.82 24.55,-7.68 32.43,-10.986c1.643,-0.69 4.02,-0.629 5.73,-0.008c17.455,6.342 34.845,12.86 52.244,19.355c6.612,2.468 13.167,5.089 19.803,7.49c9.46,3.423 11.49,8.022 11.653,18.058c0.516,31.625 0.278,63.265 0.087,94.898c-0.153,25.264 -0.71,51.542 -1.108,77.27Z" style="fill:#545454;fill-rule:nonzero;"/><path d="M107.534,273.236c-3.158,4.983 -7.428,4.507 -12.048,2.491c-23.534,-10.268 -47.093,-20.482 -70.599,-30.815c-5.95,-2.616 -8.179,-8.055 -8.342,-13.945c-0.58,-20.914 -0.858,-41.839 -1.075,-62.761c-0.406,-39.082 -0.698,-78.166 -1.015,-117.249c-0.06,-7.512 -0.428,-15.053 0.096,-22.527c0.549,-7.817 1.45,-8.247 8.997,-8.257c1,-0.001 7.116,2.222 8.628,2.804c20.472,7.869 40.857,15.986 61.506,23.363c7.209,2.575 12.279,6.125 13.765,14.265c0.21,3.578 0.597,6.732 0.598,9.886c0.028,63.471 0.02,126.941 -0.019,190.411c-0.002,4.112 -0.32,8.223 -0.492,12.334Z" style="fill:#a6a6a6;fill-rule:nonzero;"/><path d="M84.251,79.826c-2.14,7.933 -7.747,9.74 -12.519,3.765c-2.711,-3.393 -4.255,-8.182 -4.915,-12.555c-0.338,-2.233 1.896,-6.209 3.944,-7.066c2.039,-0.854 6.544,0.365 7.769,2.169c2.666,3.925 3.932,8.8 5.721,13.687Z" style="fill:#474747;fill-rule:nonzero;"/><g><path d="M69.493,57.467c6.673,-2.24 14.79,3.982 18.115,13.886c3.324,9.903 0.606,19.763 -6.067,22.003c-6.673,2.24 -14.79,-3.982 -18.115,-13.886c-3.325,-9.903 -0.606,-19.763 6.067,-22.003Z" style="fill:#94ccce;"/><path d="M71.667,63.943c4.265,-1.432 9.453,2.544 11.578,8.874c2.124,6.33 0.387,12.632 -3.878,14.063c-4.265,1.432 -9.453,-2.545 -11.578,-8.874c-2.125,-6.33 -0.387,-12.632 3.878,-14.063Z"/></g></svg>